<?xml version="1.0" encoding="UTF-8"?>
<svg width="915px" height="811px" viewBox="0 0 915 811" version="1.1" xmlns="http://www.w3.org/2000/svg" xmlns:xlink="http://www.w3.org/1999/xlink">
    <title>水印</title>
    <g id="页面-1" stroke="none" stroke-width="1" fill="none" fill-rule="evenodd">
        <g id="水印" fill-rule="nonzero">
            <rect id="矩形" fill="#D8D8D8" opacity="0" x="0" y="2" width="915" height="809"></rect>
            <path d="M689.316267,129.872389 L697.319467,126.489035 C695.1072,121.283876 689.8368,113.606266 685.607467,108.01072 L678.189867,110.938622 C679.426133,112.695363 680.727467,114.647298 682.0288,116.534168 L670.512,117.249878 L670.512,106.12385 L690.552533,106.12385 L690.552533,78.1461192 L670.512,78.1461192 L670.512,68.6467037 L661.988267,68.6467037 L661.988267,78.1461192 L641.947733,78.1461192 L641.947733,106.12385 L661.988267,106.12385 L661.988267,117.705329 C652.7488,118.16078 644.094933,118.551167 637.458133,118.811425 L638.759467,127.204744 C651.447467,126.423971 669.405867,125.187745 686.388267,123.821391 C687.624533,126.033584 688.6656,128.115647 689.316267,129.872389 Z M661.988267,98.44624 L649.885867,98.44624 L649.885867,85.8887935 L661.988267,85.8887935 L661.988267,98.44624 Z M682.0288,98.44624 L670.512,98.44624 L670.512,85.8887935 L682.0288,85.8887935 L682.0288,98.44624 Z M754.382933,129.872389 L762.386133,126.489035 C760.173867,121.283876 754.903467,113.606266 750.674133,108.01072 L743.256533,110.938622 C744.4928,112.695363 745.794133,114.647298 747.095467,116.534168 L735.578667,117.249878 L735.578667,106.12385 L755.6192,106.12385 L755.6192,78.1461192 L735.578667,78.1461192 L735.578667,68.6467037 L727.054933,68.6467037 L727.054933,78.1461192 L707.0144,78.1461192 L707.0144,106.12385 L727.054933,106.12385 L727.054933,117.705329 C717.815467,118.16078 709.1616,118.551167 702.5248,118.811425 L703.826133,127.204744 C716.514133,126.423971 734.472533,125.187745 751.454933,123.821391 C752.6912,126.033584 753.732267,128.115647 754.382933,129.872389 Z M727.054933,98.44624 L714.952533,98.44624 L714.952533,85.8887935 L727.054933,85.8887935 L727.054933,98.44624 Z M747.095467,98.44624 L735.578667,98.44624 L735.578667,85.8887935 L747.095467,85.8887935 L747.095467,98.44624 Z M776.440533,129.416937 C777.6768,128.245776 779.824,127.074616 790.7552,121.674263 C790.299733,120.047651 789.7792,117.054684 789.649067,114.907556 L783.9232,117.5752 L783.9232,107.229946 L790.7552,107.229946 L790.7552,100.33311 L783.9232,100.33311 L783.9232,93.9567902 L789.3888,93.9567902 L789.3888,87.0599543 L773.3824,87.0599543 C774.488533,85.563471 775.5296,84.0669878 776.5056,82.375311 L789.7792,82.375311 L789.7792,75.0230237 L780.2144,75.0230237 C780.734933,73.6566694 781.320533,72.2252506 781.776,70.9239608 L775.009067,68.8418971 C773.1872,74.5025078 769.8688,80.0329894 766.225067,83.6115363 C767.396267,85.433342 769.2832,89.5324049 769.803733,91.1590171 C770.714667,90.3131788 771.6256,89.2721469 772.536533,88.1660506 L772.536533,93.9567902 L776.570667,93.9567902 L776.570667,100.33311 L768.6976,100.33311 L768.6976,107.229946 L776.570667,107.229946 L776.570667,118.095716 C776.570667,120.828424 774.878933,122.324908 773.512533,123.040617 C774.618667,124.5371 775.985067,127.595131 776.440533,129.416937 Z M798.9536,129.221744 L798.9536,118.486103 C800.450133,119.331941 802.206933,120.372973 802.987733,121.088682 C805.2,117.510136 807.282133,113.215879 809.169067,108.466171 C810.6656,111.979654 811.8368,115.232878 812.682667,118.095716 L818.343467,114.777427 C817.042133,110.548235 814.96,105.278011 812.4224,99.8125943 C814.3744,94.0218547 816.066133,87.9057927 817.4976,81.7897306 L811.2512,80.6185698 C810.405333,84.2621812 809.4944,88.1009861 808.453333,91.6795331 C806.891733,88.6865665 805.265067,85.7586645 803.703467,82.9608914 L798.9536,85.563471 L798.9536,78.5365061 L818.603733,78.5365061 L818.603733,120.633231 C818.603733,121.609198 818.213333,121.934521 817.367467,121.934521 C816.456533,121.934521 813.658667,121.999585 810.925867,121.804392 C811.901867,123.626198 812.877867,126.619164 813.2032,128.506034 C817.627733,128.506034 820.685867,128.375905 822.833067,127.204735 C824.980267,126.098648 825.696,124.211778 825.696,120.76336 L825.696,71.7047347 L791.796267,71.7047347 L791.796267,129.221744 L798.9536,129.221744 Z M798.9536,115.102749 L798.9536,86.6695673 C801.230933,90.8336947 803.508267,95.5834024 805.720533,100.268046 C803.703467,105.798527 801.4912,110.938622 798.9536,115.102749 Z M868.4448,130.067582 C873.194667,124.797358 878.530133,118.486103 882.6944,113.150815 L877.0336,110.287977 L875.797333,110.678364 L865.5168,110.678364 L868.8352,108.5963 C867.403733,106.644366 864.670933,103.976722 862.0032,102.089851 L856.277333,105.212947 C858.164267,106.774495 860.181333,108.856558 861.6128,110.678364 L841.1168,110.678364 C848.794667,107.880591 855.886933,104.23698 861.742933,99.8125943 C868.0544,104.171915 878.334933,109.246945 887.639467,111.654331 C888.810667,109.637332 891.088,106.644366 892.779733,105.017753 C883.345067,103.130883 872.7392,99.2920784 866.622933,95.7135314 L867.143467,95.1930155 L891.022933,95.1930155 L891.022933,89.3372114 L881.1328,89.3372114 L881.1328,85.6936 L889.851733,85.6936 L889.851733,80.1631184 L881.1328,80.1631184 L881.1328,76.9098939 L890.632533,76.9098939 L890.632533,71.0540898 L863.5648,71.0540898 L863.5648,76.9098939 L873.650133,76.9098939 L873.650133,80.1631184 L865.1264,80.1631184 L865.1264,85.6936 L873.650133,85.6936 L873.650133,89.3372114 L864.215467,89.3372114 L864.215467,93.1760163 L861.482667,91.8747265 L860.311467,92.8506939 L860.311467,92.8506939 L860.311467,89.4022759 L850.8768,89.4022759 L850.8768,85.7586645 L859.140267,85.7586645 L859.140267,80.2281829 L850.8768,80.2281829 L850.8768,76.9098939 L860.311467,76.9098939 L860.311467,71.0540898 L833.569067,71.0540898 L833.569067,76.9098939 L843.524267,76.9098939 L843.524267,80.2281829 L835.195733,80.2281829 L835.195733,85.7586645 L843.524267,85.7586645 L843.524267,89.4022759 L833.3088,89.4022759 L833.3088,95.1930155 L857.253333,95.1930155 C850.616533,99.6824653 841.051733,103.52127 831.682133,105.928656 C833.178667,107.42514 835.456,110.548235 836.432,112.304976 C837.928533,111.849525 839.425067,111.329009 840.856533,110.808493 L840.856533,117.184813 L869.8112,117.184813 C867.208533,120.307909 864.215467,123.691262 861.4176,126.684229 L868.4448,130.067582 Z" id="乐乐找谱" fill-opacity="0.14" fill="#8F8F8F" transform="translate(765.118933, 99.357143) rotate(-35.000000) translate(-765.118933, -99.357143) "></path>
            <path d="M713.716267,357.598103 L721.719467,354.214749 C719.5072,349.00959 714.2368,341.33198 710.007467,335.736434 L702.589867,338.664336 C703.826133,340.421078 705.127467,342.373012 706.4288,344.259882 L694.912,344.975592 L694.912,333.849564 L714.952533,333.849564 L714.952533,305.871833 L694.912,305.871833 L694.912,296.372418 L686.388267,296.372418 L686.388267,305.871833 L666.347733,305.871833 L666.347733,333.849564 L686.388267,333.849564 L686.388267,345.431043 C677.1488,345.886495 668.494933,346.276882 661.858133,346.53714 L663.159467,354.930459 C675.847467,354.149685 693.805867,352.91346 710.788267,351.547105 C712.024533,353.759298 713.0656,355.841362 713.716267,357.598103 Z M686.388267,326.171954 L674.285867,326.171954 L674.285867,313.614508 L686.388267,313.614508 L686.388267,326.171954 Z M706.4288,326.171954 L694.912,326.171954 L694.912,313.614508 L706.4288,313.614508 L706.4288,326.171954 Z M778.782933,357.598103 L786.786133,354.214749 C784.573867,349.00959 779.303467,341.33198 775.074133,335.736434 L767.656533,338.664336 C768.8928,340.421078 770.194133,342.373012 771.495467,344.259882 L759.978667,344.975592 L759.978667,333.849564 L780.0192,333.849564 L780.0192,305.871833 L759.978667,305.871833 L759.978667,296.372418 L751.454933,296.372418 L751.454933,305.871833 L731.4144,305.871833 L731.4144,333.849564 L751.454933,333.849564 L751.454933,345.431043 C742.215467,345.886495 733.5616,346.276882 726.9248,346.53714 L728.226133,354.930459 C740.914133,354.149685 758.872533,352.91346 775.854933,351.547105 C777.0912,353.759298 778.132267,355.841362 778.782933,357.598103 Z M751.454933,326.171954 L739.352533,326.171954 L739.352533,313.614508 L751.454933,313.614508 L751.454933,326.171954 Z M771.495467,326.171954 L759.978667,326.171954 L759.978667,313.614508 L771.495467,313.614508 L771.495467,326.171954 Z M800.840533,357.142651 C802.0768,355.971491 804.224,354.80033 815.1552,349.399977 C814.699733,347.773365 814.1792,344.780398 814.049067,342.63327 L808.3232,345.300914 L808.3232,334.95566 L815.1552,334.95566 L815.1552,328.058824 L808.3232,328.058824 L808.3232,321.682504 L813.7888,321.682504 L813.7888,314.785669 L797.7824,314.785669 C798.888533,313.289185 799.9296,311.792702 800.9056,310.101025 L814.1792,310.101025 L814.1792,302.748738 L804.6144,302.748738 C805.134933,301.382384 805.720533,299.950965 806.176,298.649675 L799.409067,296.567611 C797.5872,302.228222 794.2688,307.758704 790.625067,311.337251 C791.796267,313.159056 793.6832,317.258119 794.203733,318.884731 C795.114667,318.038893 796.0256,316.997861 796.936533,315.891765 L796.936533,321.682504 L800.970667,321.682504 L800.970667,328.058824 L793.0976,328.058824 L793.0976,334.95566 L800.970667,334.95566 L800.970667,345.82143 C800.970667,348.554139 799.278933,350.050622 797.912533,350.766331 C799.018667,352.262815 800.385067,355.320846 800.840533,357.142651 Z M823.3536,356.947458 L823.3536,346.211817 C824.850133,347.057656 826.606933,348.098687 827.387733,348.814397 C829.6,345.23585 831.682133,340.941593 833.569067,336.191886 C835.0656,339.705368 836.2368,342.958593 837.082667,345.82143 L842.743467,342.503141 C841.442133,338.273949 839.36,333.003726 836.8224,327.538309 C838.7744,321.747569 840.466133,315.631507 841.8976,309.515445 L835.6512,308.344284 C834.805333,311.987896 833.8944,315.8267 832.853333,319.405247 C831.291733,316.412281 829.665067,313.484379 828.103467,310.686606 L823.3536,313.289185 L823.3536,306.26222 L843.003733,306.26222 L843.003733,348.358945 C843.003733,349.334913 842.613333,349.660235 841.767467,349.660235 C840.856533,349.660235 838.058667,349.7253 835.325867,349.530106 C836.301867,351.351912 837.277867,354.344878 837.6032,356.231749 C842.027733,356.231749 845.085867,356.10162 847.233067,354.930449 C849.380267,353.824362 850.096,351.937492 850.096,348.489074 L850.096,299.430449 L816.196267,299.430449 L816.196267,356.947458 L823.3536,356.947458 Z M823.3536,342.828464 L823.3536,314.395282 C825.630933,318.559409 827.908267,323.309117 830.120533,327.99376 C828.103467,333.524242 825.8912,338.664336 823.3536,342.828464 Z M892.8448,357.793296 C897.594667,352.523073 902.930133,346.211817 907.0944,340.876529 L901.4336,338.013691 L900.197333,338.404078 L889.9168,338.404078 L893.2352,336.322015 C891.803733,334.37008 889.070933,331.702436 886.4032,329.815566 L880.677333,332.938661 C882.564267,334.500209 884.581333,336.582273 886.0128,338.404078 L865.5168,338.404078 C873.194667,335.606305 880.286933,331.962694 886.142933,327.538309 C892.4544,331.897629 902.734933,336.97266 912.039467,339.380046 C913.210667,337.363047 915.488,334.37008 917.179733,332.743468 C907.745067,330.856598 897.1392,327.017793 891.022933,323.439246 L891.543467,322.91873 L915.422933,322.91873 L915.422933,317.062926 L905.5328,317.062926 L905.5328,313.419314 L914.251733,313.419314 L914.251733,307.888833 L905.5328,307.888833 L905.5328,304.635608 L915.032533,304.635608 L915.032533,298.779804 L887.9648,298.779804 L887.9648,304.635608 L898.050133,304.635608 L898.050133,307.888833 L889.5264,307.888833 L889.5264,313.419314 L898.050133,313.419314 L898.050133,317.062926 L888.615467,317.062926 L888.615467,320.901731 L885.882667,319.600441 L884.711467,320.576408 L884.711467,320.576408 L884.711467,317.12799 L875.2768,317.12799 L875.2768,313.484379 L883.540267,313.484379 L883.540267,307.953897 L875.2768,307.953897 L875.2768,304.635608 L884.711467,304.635608 L884.711467,298.779804 L857.969067,298.779804 L857.969067,304.635608 L867.924267,304.635608 L867.924267,307.953897 L859.595733,307.953897 L859.595733,313.484379 L867.924267,313.484379 L867.924267,317.12799 L857.7088,317.12799 L857.7088,322.91873 L881.653333,322.91873 C875.016533,327.40818 865.451733,331.246984 856.082133,333.654371 C857.578667,335.150854 859.856,338.273949 860.832,340.030691 C862.328533,339.575239 863.825067,339.054723 865.256533,338.534207 L865.256533,344.910527 L894.2112,344.910527 C891.608533,348.033623 888.615467,351.416976 885.8176,354.409943 L892.8448,357.793296 Z" id="乐乐找谱" fill-opacity="0.14" fill="#8F8F8F" transform="translate(789.518933, 327.082857) rotate(-35.000000) translate(-789.518933, -327.082857) "></path>
            <path d="M83.3829333,739.85198 L91.3861333,736.468627 C89.1738667,731.263468 83.9034667,723.585858 79.6741333,717.990312 L72.2565333,720.918214 C73.4928,722.674955 74.7941333,724.62689 76.0954667,726.51376 L64.5786667,727.229469 L64.5786667,716.103442 L84.6192,716.103442 L84.6192,688.125711 L64.5786667,688.125711 L64.5786667,678.626296 L56.0549333,678.626296 L56.0549333,688.125711 L36.0144,688.125711 L36.0144,716.103442 L56.0549333,716.103442 L56.0549333,727.684921 C46.8154667,728.140372 38.1616,728.530759 31.5248,728.791017 L32.8261333,737.184336 C45.5141333,736.403562 63.4725333,735.167337 80.4549333,733.800983 C81.6912,736.013176 82.7322667,738.095239 83.3829333,739.85198 Z M56.0549333,708.425832 L43.9525333,708.425832 L43.9525333,695.868385 L56.0549333,695.868385 L56.0549333,708.425832 Z M76.0954667,708.425832 L64.5786667,708.425832 L64.5786667,695.868385 L76.0954667,695.868385 L76.0954667,708.425832 Z M148.4496,739.85198 L156.4528,736.468627 C154.240533,731.263468 148.970133,723.585858 144.7408,717.990312 L137.3232,720.918214 C138.559467,722.674955 139.8608,724.62689 141.162133,726.51376 L129.645333,727.229469 L129.645333,716.103442 L149.685867,716.103442 L149.685867,688.125711 L129.645333,688.125711 L129.645333,678.626296 L121.1216,678.626296 L121.1216,688.125711 L101.081067,688.125711 L101.081067,716.103442 L121.1216,716.103442 L121.1216,727.684921 C111.882133,728.140372 103.228267,728.530759 96.5914667,728.791017 L97.8928,737.184336 C110.5808,736.403562 128.5392,735.167337 145.5216,733.800983 C146.757867,736.013176 147.798933,738.095239 148.4496,739.85198 Z M121.1216,708.425832 L109.0192,708.425832 L109.0192,695.868385 L121.1216,695.868385 L121.1216,708.425832 Z M141.162133,708.425832 L129.645333,708.425832 L129.645333,695.868385 L141.162133,695.868385 L141.162133,708.425832 Z M170.5072,739.396529 C171.743467,738.225368 173.890667,737.054207 184.821867,731.653855 C184.3664,730.027242 183.845867,727.034276 183.715733,724.887148 L177.989867,727.554792 L177.989867,717.209538 L184.821867,717.209538 L184.821867,710.312702 L177.989867,710.312702 L177.989867,703.936382 L183.455467,703.936382 L183.455467,697.039546 L167.449067,697.039546 C168.5552,695.543063 169.596267,694.04658 170.572267,692.354903 L183.845867,692.354903 L183.845867,685.002616 L174.281067,685.002616 C174.8016,683.636261 175.3872,682.204842 175.842667,680.903553 L169.075733,678.821489 C167.253867,684.4821 163.935467,690.012581 160.291733,693.591128 C161.462933,695.412934 163.349867,699.511997 163.8704,701.138609 C164.781333,700.292771 165.692267,699.251739 166.6032,698.145642 L166.6032,703.936382 L170.637333,703.936382 L170.637333,710.312702 L162.764267,710.312702 L162.764267,717.209538 L170.637333,717.209538 L170.637333,728.075308 C170.637333,730.808016 168.9456,732.3045 167.5792,733.020209 C168.685333,734.516692 170.051733,737.574723 170.5072,739.396529 Z M193.020267,739.201336 L193.020267,728.465695 C194.5168,729.311533 196.2736,730.352565 197.0544,731.068274 C199.266667,727.489727 201.3488,723.195471 203.235733,718.445763 C204.732267,721.959246 205.903467,725.21247 206.749333,728.075308 L212.410133,724.757019 C211.1088,720.527827 209.026667,715.257603 206.489067,709.792186 C208.441067,704.001447 210.1328,697.885384 211.564267,691.769322 L205.317867,690.598162 C204.472,694.241773 203.561067,698.080578 202.52,701.659125 C200.9584,698.666158 199.331733,695.738256 197.770133,692.940483 L193.020267,695.543063 L193.020267,688.516098 L212.6704,688.516098 L212.6704,730.612823 C212.6704,731.58879 212.28,731.914113 211.434133,731.914113 C210.5232,731.914113 207.725333,731.979177 204.992533,731.783984 C205.968533,733.605789 206.944533,736.598756 207.269867,738.485626 C211.6944,738.485626 214.752533,738.355497 216.899733,737.184327 C219.046933,736.07824 219.762667,734.19137 219.762667,730.742952 L219.762667,681.684327 L185.862933,681.684327 L185.862933,739.201336 L193.020267,739.201336 Z M193.020267,725.082341 L193.020267,696.649159 C195.2976,700.813287 197.574933,705.562994 199.7872,710.247638 C197.770133,715.778119 195.557867,720.918214 193.020267,725.082341 Z M262.511467,740.047174 C267.261333,734.77695 272.5968,728.465695 276.761067,723.130407 L271.100267,720.267569 L269.864,720.657956 L259.583467,720.657956 L262.901867,718.575892 C261.4704,716.623958 258.7376,713.956313 256.069867,712.069443 L250.344,715.192539 C252.230933,716.754087 254.248,718.83615 255.679467,720.657956 L235.183467,720.657956 C242.861333,717.860183 249.9536,714.216571 255.8096,709.792186 C262.121067,714.151507 272.4016,719.226537 281.706133,721.633923 C282.877333,719.616924 285.154667,716.623958 286.8464,714.997345 C277.411733,713.110475 266.805867,709.27167 260.6896,705.693123 L261.210133,705.172607 L285.0896,705.172607 L285.0896,699.316803 L275.199467,699.316803 L275.199467,695.673192 L283.9184,695.673192 L283.9184,690.14271 L275.199467,690.14271 L275.199467,686.889486 L284.6992,686.889486 L284.6992,681.033682 L257.631467,681.033682 L257.631467,686.889486 L267.7168,686.889486 L267.7168,690.14271 L259.193067,690.14271 L259.193067,695.673192 L267.7168,695.673192 L267.7168,699.316803 L258.282133,699.316803 L258.282133,703.155608 L255.549333,701.854318 L254.378133,702.830286 L254.378133,702.830286 L254.378133,699.381868 L244.943467,699.381868 L244.943467,695.738256 L253.206933,695.738256 L253.206933,690.207775 L244.943467,690.207775 L244.943467,686.889486 L254.378133,686.889486 L254.378133,681.033682 L227.635733,681.033682 L227.635733,686.889486 L237.590933,686.889486 L237.590933,690.207775 L229.2624,690.207775 L229.2624,695.738256 L237.590933,695.738256 L237.590933,699.381868 L227.375467,699.381868 L227.375467,705.172607 L251.32,705.172607 C244.6832,709.662057 235.1184,713.500862 225.7488,715.908248 C227.245333,717.404731 229.522667,720.527827 230.498667,722.284568 C231.9952,721.829117 233.491733,721.308601 234.9232,720.788085 L234.9232,727.164405 L263.877867,727.164405 C261.2752,730.2875 258.282133,733.670854 255.484267,736.66382 L262.511467,740.047174 Z" id="乐乐找谱" fill-opacity="0.14" fill="#8F8F8F" transform="translate(159.185600, 709.336735) rotate(-35.000000) translate(-159.185600, -709.336735) "></path>
            <path d="M50.8496,512.126266 L58.8528,508.742913 C56.6405333,503.537753 51.3701333,495.860144 47.1408,490.264598 L39.7232,493.1925 C40.9594667,494.949241 42.2608,496.901176 43.5621333,498.788046 L32.0453333,499.503755 L32.0453333,488.377727 L52.0858667,488.377727 L52.0858667,460.399997 L32.0453333,460.399997 L32.0453333,450.900581 L23.5216,450.900581 L23.5216,460.399997 L3.48106667,460.399997 L3.48106667,488.377727 L23.5216,488.377727 L23.5216,499.959207 C14.2821333,500.414658 5.62826667,500.805045 -1.00853333,501.065303 L0.2928,509.458622 C12.9808,508.677848 30.9392,507.441623 47.9216,506.075269 C49.1578667,508.287461 50.1989333,510.369525 50.8496,512.126266 Z M23.5216,480.700118 L11.4192,480.700118 L11.4192,468.142671 L23.5216,468.142671 L23.5216,480.700118 Z M43.5621333,480.700118 L32.0453333,480.700118 L32.0453333,468.142671 L43.5621333,468.142671 L43.5621333,480.700118 Z M115.916267,512.126266 L123.919467,508.742913 C121.7072,503.537753 116.4368,495.860144 112.207467,490.264598 L104.789867,493.1925 C106.026133,494.949241 107.327467,496.901176 108.6288,498.788046 L97.112,499.503755 L97.112,488.377727 L117.152533,488.377727 L117.152533,460.399997 L97.112,460.399997 L97.112,450.900581 L88.5882667,450.900581 L88.5882667,460.399997 L68.5477333,460.399997 L68.5477333,488.377727 L88.5882667,488.377727 L88.5882667,499.959207 C79.3488,500.414658 70.6949333,500.805045 64.0581333,501.065303 L65.3594667,509.458622 C78.0474667,508.677848 96.0058667,507.441623 112.988267,506.075269 C114.224533,508.287461 115.2656,510.369525 115.916267,512.126266 Z M88.5882667,480.700118 L76.4858667,480.700118 L76.4858667,468.142671 L88.5882667,468.142671 L88.5882667,480.700118 Z M108.6288,480.700118 L97.112,480.700118 L97.112,468.142671 L108.6288,468.142671 L108.6288,480.700118 Z M137.973867,511.670815 C139.210133,510.499654 141.357333,509.328493 152.288533,503.92814 C151.833067,502.301528 151.312533,499.308562 151.1824,497.161433 L145.456533,499.829078 L145.456533,489.483824 L152.288533,489.483824 L152.288533,482.586988 L145.456533,482.586988 L145.456533,476.210668 L150.922133,476.210668 L150.922133,469.313832 L134.915733,469.313832 C136.021867,467.817349 137.062933,466.320865 138.038933,464.629189 L151.312533,464.629189 L151.312533,457.276901 L141.747733,457.276901 C142.268267,455.910547 142.853867,454.479128 143.309333,453.177838 L136.5424,451.095775 C134.720533,456.756385 131.402133,462.286867 127.7584,465.865414 C128.9296,467.68722 130.816533,471.786282 131.337067,473.412895 C132.248,472.567056 133.158933,471.526024 134.069867,470.419928 L134.069867,476.210668 L138.104,476.210668 L138.104,482.586988 L130.230933,482.586988 L130.230933,489.483824 L138.104,489.483824 L138.104,500.349593 C138.104,503.082302 136.412267,504.578785 135.045867,505.294495 C136.152,506.790978 137.5184,509.849009 137.973867,511.670815 Z M160.486933,511.475621 L160.486933,500.73998 C161.983467,501.585819 163.740267,502.626851 164.521067,503.34256 C166.733333,499.764013 168.815467,495.469757 170.7024,490.720049 C172.198933,494.233531 173.370133,497.486756 174.216,500.349593 L179.8768,497.031304 C178.575467,492.802113 176.493333,487.531889 173.955733,482.066472 C175.907733,476.275732 177.599467,470.15967 179.030933,464.043608 L172.784533,462.872447 C171.938667,466.516059 171.027733,470.354864 169.986667,473.933411 C168.425067,470.940444 166.7984,468.012542 165.2368,465.214769 L160.486933,467.817349 L160.486933,460.790384 L180.137067,460.790384 L180.137067,502.887109 C180.137067,503.863076 179.746667,504.188398 178.9008,504.188398 C177.989867,504.188398 175.192,504.253463 172.4592,504.058269 C173.4352,505.880075 174.4112,508.873042 174.736533,510.759912 C179.161067,510.759912 182.2192,510.629783 184.3664,509.458612 C186.5136,508.352526 187.229333,506.465656 187.229333,503.017238 L187.229333,453.958612 L153.3296,453.958612 L153.3296,511.475621 L160.486933,511.475621 Z M160.486933,497.356627 L160.486933,468.923445 C162.764267,473.087572 165.0416,477.83728 167.253867,482.521923 C165.2368,488.052405 163.024533,493.1925 160.486933,497.356627 Z M229.978133,512.32146 C234.728,507.051236 240.063467,500.73998 244.227733,495.404692 L238.566933,492.541855 L237.330667,492.932242 L227.050133,492.932242 L230.368533,490.850178 C228.937067,488.898243 226.204267,486.230599 223.536533,484.343729 L217.810667,487.466824 C219.6976,489.028372 221.714667,491.110436 223.146133,492.932242 L202.650133,492.932242 C210.328,490.134469 217.420267,486.490857 223.276267,482.066472 C229.587733,486.425793 239.868267,491.500823 249.1728,493.908209 C250.344,491.89121 252.621333,488.898243 254.313067,487.271631 C244.8784,485.384761 234.272533,481.545956 228.156267,477.967409 L228.6768,477.446893 L252.556267,477.446893 L252.556267,471.591089 L242.666133,471.591089 L242.666133,467.947478 L251.385067,467.947478 L251.385067,462.416996 L242.666133,462.416996 L242.666133,459.163771 L252.165867,459.163771 L252.165867,453.307967 L225.098133,453.307967 L225.098133,459.163771 L235.183467,459.163771 L235.183467,462.416996 L226.659733,462.416996 L226.659733,467.947478 L235.183467,467.947478 L235.183467,471.591089 L225.7488,471.591089 L225.7488,475.429894 L223.016,474.128604 L221.8448,475.104571 L221.8448,475.104571 L221.8448,471.656153 L212.410133,471.656153 L212.410133,468.012542 L220.6736,468.012542 L220.6736,462.48206 L212.410133,462.48206 L212.410133,459.163771 L221.8448,459.163771 L221.8448,453.307967 L195.1024,453.307967 L195.1024,459.163771 L205.0576,459.163771 L205.0576,462.48206 L196.729067,462.48206 L196.729067,468.012542 L205.0576,468.012542 L205.0576,471.656153 L194.842133,471.656153 L194.842133,477.446893 L218.786667,477.446893 C212.149867,481.936343 202.585067,485.775148 193.215467,488.182534 C194.712,489.679017 196.989333,492.802113 197.965333,494.558854 C199.461867,494.103402 200.9584,493.582887 202.389867,493.062371 L202.389867,499.438691 L231.344533,499.438691 C228.741867,502.561786 225.7488,505.94514 222.950933,508.938106 L229.978133,512.32146 Z" id="乐乐找谱" fill-opacity="0.14" fill="#8F8F8F" transform="translate(126.652267, 481.611020) rotate(-35.000000) translate(-126.652267, -481.611020) "></path>
            <g id="编组" opacity="0.14" transform="translate(294.000000, 99.000000)" fill="#8F8F8F">
                <path d="M94.7271881,316.253711 C83.7038047,297.374981 68.4678716,267.453135 60.7285131,236.011684 C53.9959648,208.659801 47.1108095,177.150043 45.8542786,148.976484 C44.7890019,125.105335 44.2023566,96.9773143 50.1044845,73.8288435 C55.8510326,51.2911843 67.8752805,26.1647533 80.2780733,6.32377264 C80.7448131,5.57733519 81.1986704,4.82297798 81.6574826,4.07258065 C80.4485175,4.29532392 79.6706178,4.89920568 78.9293835,5.54367621 C64.9370989,17.7222883 51.6523563,31.966968 41.6040726,47.5055387 C16.9045193,85.699575 4.00724,125.93592 0.805464402,171.052817 C-0.843484713,194.291375 0.0553114693,220.185033 3.35519161,243.227577 C7.39036036,271.401135 14.069397,301.244774 23.3288805,328.139292 C33.7973291,358.543253 46.1545379,387.000934 64.1274887,413.900401 C79.75584,437.291414 99.6343972,461.087326 122.350059,478.008885 C151.627824,499.819906 185.647309,509.973039 222.220485,502.633401 C246.212497,497.819176 267.831171,486.583016 286.392749,470.366315 C301.870475,456.844314 312.863139,436.672683 319.966304,417.720696 C331.306793,387.46028 334.252902,358.588792 336.036621,326.54346 L337,268.731186 C337.005775,267.860012 336.85515,266.987849 336.706507,265.322719 C335.063503,269.791444 333.756434,273.504822 332.338377,277.175631 C323.180962,300.873535 311.945514,323.452773 295.999067,343.41948 C282.584509,360.216303 266.811478,373.939268 245.594141,379.935517 C213.293963,389.064031 183.173885,389.512488 153.372896,373.142342 C141.181176,366.445195 126.599274,354.886304 119.79934,348.093129 C109.601423,337.906337 100.676882,326.442483 94.7271881,316.253711 Z" id="路径"></path>
                <path d="M252.745512,29.3039345 C260.350872,36.4082073 274.648234,51.9519176 285.564885,78.8724281 C295.670324,103.794177 302.361335,131.785809 303.994668,158.637568 C305.647834,185.823119 303.609887,210.70003 294.637963,236.551412 C290.75446,247.740891 284.915321,259.124666 277.4845,268.457867 C274.649226,272.018971 271.499581,274.769012 268.695049,277.003918 C264.583454,280.280054 262.315433,281.134958 261.00242,280.993471 C266.092824,273.194713 270.182602,265.020316 273.098204,256.257051 C278.997837,238.525264 280.12441,220.333145 277.545986,201.950715 C273.739835,174.822955 266.483555,149.242591 251.966035,126.01969 C242.513135,110.89845 230.120832,96.9908145 214.68103,87.7034476 C201.045133,79.5021477 187.467747,75.8493757 171.725476,78.3024921 C168.609549,78.7877348 162.25175,80.9070599 159.391683,82.291048 C137.282687,92.9903019 124.311231,111.37871 116.322082,134.334579 C116.074157,135.046002 115.827223,135.758422 115.566406,136.464864 C115.542605,136.528633 115.418642,136.555536 115.013036,136.785702 C114.631231,131.680191 114.091746,126.736096 113.921173,121.779047 C113.213098,101.208541 113.874563,79.6695415 119.201984,59.643065 C121.553308,50.8040743 123.991903,42.9684501 128.664801,35.072046 L130.259457,32.5083302 C136.851297,21.1843387 148.972866,9.43289515 163.646083,4.51968775 C181.79918,-1.56029431 213.40471,-7.44498361 252.745512,29.3039345 Z" id="路径"></path>
                <path d="M210.073362,292.474762 C232.333279,277.807452 230.686383,251.526812 218.754829,237.722343 C212.144398,230.074882 203.831447,226.507402 193.726577,227.982841 L188.048858,203.159623 C188.048858,203.159623 195.522469,194.682352 200.13338,187.944778 C204.393656,181.719705 211.990437,164.334743 210.499489,145.087966 C209.008541,125.842189 199.725133,113.536182 199.725133,113.536182 C197.145526,109.08584 194.18449,108.944703 190.033477,112.247925 C184.712354,116.484058 181.731452,122.926344 179.703128,128.613893 C175.421992,138.107155 175.176647,154.424074 175.176647,154.424074 C175.176647,158.770315 176.008041,167.308645 176.455027,171.112356 C176.916913,175.047195 178.047292,179.728762 178.53997,183.693631 C178.677046,184.797708 178.231053,186.293167 177.508922,187.131985 C174.904482,190.154935 172.784773,192.190921 169.852543,194.883548 C169.852543,194.883548 168.787723,196.063699 157.605119,208.191532 C146.422516,220.319364 143.192295,235.235917 143.192295,235.235917 C141.453022,240.419975 141.862262,251.236528 144.023689,259.565655 C148.79651,277.960601 157.669684,291.749054 178.053252,296.838019 C184.680568,298.492633 190.917517,298.657794 197.577612,297.195368 C198.716931,296.945123 200.747242,295.98819 201.127677,297.911066 C202.919595,306.973908 206.861021,325.116609 206.913666,327.42386 C206.647461,339.658797 200.044977,344.434456 200.044977,344.434456 C194.2719,348.398323 187.112174,350.798665 180.182893,348.298226 C177.873464,347.464412 175.358421,346.19117 174.848857,343.898933 C174.848857,343.898933 177.946968,344.05909 181.887401,342.664729 C184.869296,341.484578 186.78637,340.196321 189.022295,333.54283 C190.619526,323.454988 182.068182,318.230891 182.068182,318.230891 C177.683743,315.23697 171.997084,315.779499 167.426898,319.712336 C159.772506,326.298762 159.352339,337.934114 166.726619,345.674666 C173.344996,352.621444 181.796017,355.639388 191.098298,353.772567 C191.098298,353.772567 206.060419,351.590438 210.427971,338.050227 C213.197299,329.464851 211.492792,321.898469 211.492792,321.898469 C210.190572,314.195954 208.365874,307.482404 207.090474,299.772882 C206.382249,295.479694 206.382249,294.907135 210.073362,292.474762 Z M181.781117,153.566237 C183.378348,143.799709 190.514236,128.667945 199.246361,130.922145 C207.97948,133.176344 204.357897,148.737526 203.825487,149.810573 C203.293077,150.88362 198.820234,164.621023 191.47178,172.669876 C186.818156,177.766848 184.549452,180.933938 183.378348,180.182205 C182.207244,179.430471 180.183886,163.332766 181.781117,153.566237 Z M197.010436,291.472784 C190.781434,293.146417 187.289975,292.336627 181.887401,291.043365 C164.848284,286.965387 153.345837,273.872613 152.263137,256.969121 C151.518159,245.33477 157.599159,235.486162 164.52546,226.478373 L171.231248,218.731815 C175.525296,214.855033 179.295873,211.450712 183.42106,207.726078 L187.637631,228.297148 C183.661439,229.871684 177.945975,235.129814 177.945975,235.129814 C163.517258,247.54793 165.940917,272.019805 183.09327,280.239825 C184.655736,280.883453 186.654261,281.859405 188.418367,281.312872 C189.62523,280.239825 188.175008,278.716339 187.139986,278.093731 C180.031911,273.810552 176.171936,265.42337 177.626131,257.774907 C180.1819,251.335625 184.323972,245.782207 190.59966,244.677129 C190.757595,245.066509 190.998968,245.470903 191.085385,245.907329 C193.926231,260.204278 196.742245,274.50523 199.594017,288.800177 C199.947633,290.560895 199.140078,290.900226 197.010436,291.472784 Z M203.874159,288.025421 C200.944909,273.443194 198.023605,258.898003 195.066543,244.177641 C204.514839,242.525029 214.608783,250.604912 217.256928,261.465508 C219.846469,272.083868 214.866048,283.981476 205.238957,288.728107 C204.674761,289.007379 203.999315,288.646027 203.874159,288.025421 Z" id="形状"></path>
            </g>
        </g>
    </g>
</svg>